# xmcd
#
# Track frame offsets: 
#        150
#        75268
#        144724
#        207809
#
# Disc length: 3699 seconds
#
# Revision: 0
# Processed by: cddbd v1.5.2PL0 Copyright (c) Steve Scherf et al.
# Submitted via: ExactAudioCopy v1.0b1
#
DISCID=2b0e7104
DTITLE=Abbado - Schubert Symphony No.9“the Great”》(
DYEAR=2013
DGENRE=Classical
TTITLE0=Allegro Ma Non Troppo
TTITLE1=Andante Con Moto
TTITLE2=Scherzo Allegro Vivace
TTITLE3=Allegro Vivace
EXTD=
EXTT0=
EXTT1=
EXTT2=
EXTT3=
PLAYORDER=
